<svg xmlns="http://www.w3.org/2000/svg" viewBox="0 0 32 32" shape-rendering="geometricPrecision">
  <defs>
    <linearGradient id="tile" x1="0" y1="0" x2="0" y2="1"><stop offset="0" stop-color="#0c1319"/><stop offset="1" stop-color="#060a0e"/></linearGradient>
    <filter id="glow" x="-20%" y="-20%" width="140%" height="140%"><feGaussianBlur stdDeviation="0.9" result="b"/><feMerge><feMergeNode in="b"/><feMergeNode in="SourceGraphic"/></feMerge></filter>
       <filter id="glowM" x="-50%" y="-100%" width="200%" height="300%"><feGaussianBlur stdDeviation="0.7" result="b"/><feMerge><feMergeNode in="b"/><feMergeNode in="SourceGraphic"/></feMerge></filter><pattern id="scan" width="1" height="1" patternUnits="userSpaceOnUse"><rect width="1" height="0.5" fill="#000" opacity="0.18"/></pattern>
  </defs>
  <rect x="0.5" y="0.5" width="31" height="31" rx="6" fill="url(#tile)" stroke="#385545" stroke-width="0.6"/>
  <rect x="0.5" y="0.5" width="31" height="31" rx="6" fill="url(#scan)"/>
  <g filter="url(#glow)"><rect x="6.25" y="4.25" width="3.5" height="3.5" fill="#00ff00"/><rect x="22.25" y="4.25" width="3.5" height="3.5" fill="#00ff00"/><rect x="6.25" y="8.25" width="3.5" height="3.5" fill="#00d700"/><rect x="22.25" y="8.25" width="3.5" height="3.5" fill="#00d700"/><rect x="6.25" y="12.25" width="3.5" height="3.5" fill="#00af00"/><rect x="14.25" y="12.25" width="3.5" height="3.5" fill="#00af00"/><rect x="22.25" y="12.25" width="3.5" height="3.5" fill="#00af00"/><rect x="6.25" y="16.25" width="3.5" height="3.5" fill="#008700"/><rect x="10.25" y="16.25" width="3.5" height="3.5" fill="#008700"/><rect x="18.25" y="16.25" width="3.5" height="3.5" fill="#008700"/><rect x="22.25" y="16.25" width="3.5" height="3.5" fill="#008700"/><rect x="6.25" y="20.25" width="3.5" height="3.5" fill="#005f00"/><rect x="22.25" y="20.25" width="3.5" height="3.5" fill="#005f00"/></g>
  <rect x="22.25" y="26.25" width="3.5" height="1.75" fill="#ff00ff" filter="url(#glowM)"/>
</svg>